<svg width="250" xmlns="http://www.w3.org/2000/svg" height="250">
<defs>
<linearGradient id="svg_114">
<stop offset="0" id="svg_121"/>
<stop offset="0.34" style="stop-color:#146d07" id="svg_120"/>
<stop offset="0.5" style="stop-color:#fff" id="svg_119"/>
<stop offset="1" style="stop-color:#fff" id="svg_118"/>
</linearGradient>
<linearGradient id="svg_67">
<stop offset="0" style="stop-color:#000007" id="svg_76"/>
<stop offset="0.27" style="stop-color:#6db9ff" id="svg_75"/>
<stop offset="0.575792" style="stop-color:#4168ff" id="svg_74"/>
<stop offset="0.604915" style="stop-color:#fff" id="svg_73"/>
<stop offset="1" style="stop-color:#fff" id="svg_72"/>
</linearGradient>
<radialGradient fx="233.9664" fy="525.34253" cx="233.94809" cy="525.37793" gradientTransform="scale(1.31907, 0.758109)" xlink:href="#svg_114" r="2.373824" id="svg_89" gradientUnits="userSpaceOnUse"/>
<radialGradient fx="234.09828" fy="525.39587" cx="234.0817" cy="525.3927" gradientTransform="scale(1.31907, 0.758109)" xlink:href="#svg_114" r="2.354206" id="svg_91" gradientUnits="userSpaceOnUse"/>
<radialGradient fx="145.90445" fy="574.54547" cx="145.90445" cy="574.54547" gradientTransform="matrix(2.74918, 0, 0, 1.49798, -204.673, -697.483)" xlink:href="#svg_67" r="1.925083" id="svg_57" gradientUnits="userSpaceOnUse"/>
<radialGradient fx="177.45016" fy="497.86371" cx="177.45016" cy="497.86371" gradientTransform="matrix(2.41627, 0, 0, 1.70436, -204.673, -697.483)" xlink:href="#svg_67" r="2.903074" id="svg_59" gradientUnits="userSpaceOnUse"/>
<symbol width="744.09448" x="0" y="0" height="1052.3622" xmlns:xlink="http://www.w3.org/1999/xlink" id="svg_77">
<g id="svg_33">
<path style="stroke-opacity:.195;fill:#fff;stroke:#000;fill-rule:evenodd;stroke-width:2.029" id="svg_66" d="m 266.9142,110.8624 c 0,0 12.1543,-2.43086 20.6623,4.86172 8.50803,7.29258 46.1864,58.3407 63.2024,87.511 17.0161,29.1703 39.6306,54.1804 104.505,230.133 -6.07715,9.72342 -4.83966,-5.27866 -14.5631,6.87567 -9.72348,12.1543 -8.50806,8.508 -25.524,8.508 -17.0161,0 -44.9709,-2.43085 -48.6172,4.86172 -3.6463,7.2926 -17.016,13.3698 -24.3086,9.72345 -7.2926,-3.6463 -30.3858,-8.50803 -38.8938,-3.6463 -8.508,4.86172 -29.1703,-145.852 -43.7555,-154.36 -14.5852,-8.508 -76.5721,-59.5561 -82.6493,-54.6944 -6.07715,4.86173 17.016,-15.8006 20.6623,-31.6012 3.64629,-15.8006 -1.21542,-64.4178 6.07715,-69.2796 7.29257,-4.86173 63.2024,-38.8938 63.2024,-38.8938 z "/>
<path style="fill:#fff;stroke:#000;fill-rule:evenodd;stroke-width:2.029" id="svg_65" d="m 301.8302,380.909 l 39.7777,-3.5358 13.2592,4.4197 -13.2592,28.2864 -47.7333,9.7235 -15.9111,-20.3308 23.8666,-18.563 z "/>
<path style="fill:#fff;stroke:#000;fill-rule:evenodd;stroke-width:2.029" id="svg_64" d="m 173.4803,374.1269 l -.8594,-27.502 -12.0322,-18.0482 3.4378,-35.237 18.0482,-18.0482 114.3054,3.4377 18.9077,27.5021 .8594,18.9077 c 0,0 -11.1727,31.7992 -13.751,43.8314 -2.57831,12.0322 -11.1727,29.2209 -8.59436,34.3776 2.57831,5.15662 17.1888,4.29721 24.9237,11.1727 7.73498,6.87552 15.4699,38.6748 18.9077,49.8475 3.43777,11.1727 16.3293,96.2572 22.3454,115.165 6.01605,18.9077 17.1888,96.2572 45.5503,125.478 28.3615,29.2209 80.7873,73.9117 118.603,95.3977 37.8154,21.486 118.603,31.7993 125.478,59.3013 6.87549,27.5021 15.4699,36.0964 -8.59442,55.8636 -24.0643,19.7671 -44.6908,18.9076 -76.4901,30.0803 -31.7993,11.1727 -122.9,35.237 -153.84,38.6747 -30.9398,3.43781 -11.1727,4.29724 -32.6587,11.1727 -21.486,6.87549 -103.133,6.01611 -134.073,-3.43774 -30.9398,-9.4538 -41.2531,-18.0482 -65.3174,-13.751 -24.0643,4.29724 -73.5786,-6.87549 -73.5786,-6.87549 0,0 29.6033,-261.27 29.6033,-293.928 0,-32.6587 7.01939,-145.484 16.4732,-172.126 9.45384,-26.6426 22.3454,-43.5929 24.0643,-70.2355 1.71889,-26.6426 -1.71889,-61.0202 -1.71889,-61.0202 z "/>
<path style="fill:#fff;stroke:#000;fill-rule:evenodd;stroke-width:2.029" id="svg_63" d="m 151.5588,479.9113 c 0,0 -6.18765,17.679 -6.18765,33.5901 0,15.9111 0.883942,10.6074 7.95554,-1.76788 7.07161,-12.3753 7.07161,-51.2691 -1.76788,-31.8222 z "/>
<path style="fill:#450000;stroke:#000;fill-rule:evenodd;stroke-width:2.029" id="svg_62" d="m 178.1877,130.3093 c 0,0 -2.43086,-9.72346 2.43086,-19.4469 4.86173,-9.72345 20.6623,-15.8006 21.8777,-23.0932 1.21544,-7.29259 -4.86171,-15.8006 3.64629,-19.4469 8.50804,-3.64628 25.5241,-9.72343 27.9549,-8.508 2.43086,1.21543 15.8006,3.64629 20.6623,10.9389 4.86172,7.29258 18.2315,10.9389 20.6623,27.9549 -2.43085,3.64629 -8.508,9.72345 -9.72342,13.3697 -1.21545,3.64629 3.64627,15.8006 3.64627,15.8006 l -12.1543,17.016 -51.0481,-21.8777 -27.9549,7.2926 z "/>
<path style="fill:#fff;stroke:#000;fill-rule:evenodd;stroke-width:2.029" id="svg_61" d="m 308.9018,442.7855 c 0.883942,7.07156 6.18765,61.8764 1.76788,80.4394 -4.41974,18.5629 -11.4913,43.3135 7.07162,22.0988 18.5629,-21.2148 30.9382,-24.7506 24.7506,-44.1975 -6.18765,-19.4469 -22.0987,-76.9036 -22.0987,-76.9036 0,0 -14.1432,-3.53583 -11.4914,18.5629 z "/>
<path style="fill:#ffb86b;stroke:#000;fill-rule:evenodd;stroke-width:2.029" id="svg_60" d="m 142.339,438.8063 c 0,0 -6.58882,-9.88324 -7.68697,-18.6684 -1.09814,-8.7851 -4.39255,-26.3553 -2.19629,-35.1404 2.19629,-8.78513 8.78513,-26.3553 9.88325,-31.846 1.09814,-5.49069 1.09814,-14.2758 3.29442,-21.9628 2.19627,-7.68695 8.78513,-28.5516 9.88325,-37.3367 1.09813,-8.7851 4.39256,-31.846 7.68698,-39.533 3.2944,-7.68698 16.4721,-16.4721 23.0609,-17.5702 6.58882,-1.09813 39.533,-17.5702 39.533,-17.5702 l 1.0981,-10.9814 c 0,0 -26.3553,-17.5702 -28.5516,-23.0609 -2.19627,-5.49069 -3.2944,-10.9814 -5.49069,-15.3739 -2.19627,-4.39256 -6.58882,-5.49069 -8.78511,-10.9814 -2.19627,-5.49071 -6.58882,-13.1777 -6.58882,-20.8647 0,-7.68698 2.19626,-17.5702 6.58882,-16.4721 4.39255,1.09813 9.88324,-6.58885 20.8647,-8.78513 10.9814,-2.19627 27.4535,1.09815 35.1404,7.68697 7.68698,6.58884 12.0795,20.8646 15.3739,16.4721 3.2944,-4.39255 4.39255,-2.19629 4.39255,-2.19629 0,0 -1.09814,-9.88325 2.19629,-12.0795 3.2944,-2.19629 6.58881,-3.29443 7.68698,2.19627 1.09811,5.49069 5.49069,16.4721 3.2944,21.9628 -2.19629,5.49069 -1.09814,15.3739 -1.09814,15.3739 l 10.9814,46.1218 c 0,0 9.88324,13.1777 23.0609,19.7665 13.1777,6.58885 31.846,12.0795 37.3367,17.5702 5.49069,5.49069 15.374,18.6684 16.4721,29.6498 1.09814,10.9814 8.78513,52.7107 12.0795,65.8883 3.2944,13.1777 6.58884,37.3367 5.49069,47.22 -1.09814,9.88327 -7.68698,23.0609 -16.4721,30.7479 -8.78513,7.68695 -32.9442,18.6683 -40.6311,19.7665 -7.68698,1.09814 -14.2758,2.19629 -17.5702,6.58884 -3.2944,4.39258 -31.846,18.6684 -38.4349,18.6684 -6.58881,0 -15.3739,-4.39255 -15.3739,-4.39255 0,0 8.78513,1.09814 15.3739,-3.29443 6.58884,-4.39255 7.68698,-5.49069 7.68698,-5.49069 0,0 -2.19626,0.11731 -8.78513,2.31357 -6.58881,2.19629 -14.2758,4.27527 -17.5702,4.27527 -3.2944,0 -6.58884,-4.39255 -6.58884,-4.39255 0,0 3.95015,-2.68671 13.8334,-4.88297 9.88327,-2.19629 13.6201,-7.19656 13.6201,-7.19656 0,0 -24.159,9.88324 -28.5516,8.78513 -4.39255,-1.09814 -4.39255,-4.39258 -4.39255,-4.39258 0,0 10.9814,-5.49069 15.3739,-7.68698 4.39256,-2.19626 14.2758,-8.7851 14.2758,-8.7851 l -14.8568,6.285 c -3.03857,1.21545 -9.01967,4.06195 -16.9893,7.99081 -2.19626,-5.49069 3.29443,-9.88324 12.0795,-15.3739 8.78511,-5.49069 18.6684,-14.2758 25.2572,-13.1777 6.58887,1.09814 16.4721,4.39258 21.9628,2.19629 5.49069,-2.19629 53.8088,-24.1591 53.8088,-24.1591 0,0 -4.39255,-26.3553 -7.68698,-38.4348 -3.2944,-12.0795 -15.3739,-24.1591 -16.4721,-32.9442 -1.09814,-8.7851 -1.09814,-13.1777 -1.09814,-13.1777 l -2.1963,18.6684 c 0,0 -7.68698,-28.5516 -20.8647,-34.0423 -13.1777,-5.49069 -7.68695,-7.68695 -23.0609,-8.7851 -15.3739,-1.09814 -38.4349,6.58884 -50.5144,7.68698 -12.0795,1.09811 -28.5516,-8.78513 -39.533,-8.78513 -10.9814,0 -14.2758,10.9814 -14.2758,10.9814 0,0 -8.78511,18.6684 -4.39256,34.0423 4.39256,15.374 7.68698,17.5702 7.68698,17.5702 v 27.4535 c 0,0 -8.78511,8.78513 -8.78511,17.5703 0,8.7851 0,35.1404 3.2944,39.533 3.29442,4.39255 7.68698,14.2758 7.68698,14.2758 0,0 16.4628,21.2276 14.0276,28.6183 l -11.8314,5.424 -14.2758,5.4907 c 0,0 -7.68695,-3.29443 -12.0795,-7.68698 -4.39256,-4.39258 -3.29442,-8.7851 -4.39256,-18.6684 -1.09813,-9.88324 -3.29442,-18.6684 -3.29442,-18.6684 z "/>
<path style="fill:url(#svg_59);stroke:#000;fill-rule:evenodd;stroke-width:1.218" id="svg_58" d="m 217.6892,154.6179 c 0,0 1.21542,-2.43086 3.64629,-4.254 2.43086,-1.82315 3.64632,-3.03859 6.68488,-3.03859 3.03859,0 2.43086,-0.607697 2.43086,-0.607697 0,0 -0.607712,3.64629 -3.03857,5.46942 -2.43085,1.82315 -3.6463,2.43086 -6.07716,3.03857 -2.43086,0.607727 -3.64629,-0.607712 -3.64629,-0.607712 z "/>
<path style="fill:url(#svg_57);stroke:#000;fill-rule:evenodd;stroke-width:.812" id="svg_56" d="m 191.5575,164.9491 c 0,0 1.82314,-4.254 5.46942,-4.254 3.6463,0 4.25401,1.21544 4.25401,1.21544 0,0 0.607727,2.43085 -2.43085,3.03856 -3.0386,0.607727 -3.6463,1.21542 -7.29259,0 z "/>
<path style="fill:none;stroke:#000;fill-rule:evenodd;fill-opacity:.75;stroke-width:2.029" id="svg_55" d="m 209.7889,147.3253 c 0,0 3.03859,-4.86173 6.68488,-7.29257 3.64629,-2.43086 8.50803,-3.03859 8.50803,-3.03859"/>
<path style="fill:none;stroke:#000;fill-rule:evenodd;fill-opacity:.75;stroke-width:2.029" id="svg_54" d="m 195.2038,155.2256 c 0,0 -4.86171,-1.21542 -7.9003,0 -3.03859,1.21544 -3.03859,0.607727 -3.03859,0.607727"/>
<path style="fill:none;stroke:#000;fill-rule:evenodd;fill-opacity:.75;stroke-width:1.421" id="svg_53" d="m 202.4963,155.8333 c 0,0 3.03859,2.43086 4.25403,9.72345 1.21542,7.29257 -1.21544,13.9774 1.21542,14.5851 2.43086,0.607727 6.68488,1.21545 9.11572,-1.21542 2.43086,-2.43086 3.6463,-3.6463 3.6463,-3.6463"/>
<path style="fill:#cf0000;fill-rule:evenodd" id="svg_52" d="m 211.8574,192.6626 c 0,0 3.18082,-2.35004 6.21939,-3.56546 3.03857,-1.21544 5.185,-1.96538 8.22356,-3.1808 3.03859,-1.21544 10.0273,-4.70978 10.0273,-4.70978 0,0 -1.51927,5.9252 -6.98872,9.5715 -5.46944,3.64629 -10.0079,6.99844 -17.4815,1.88454 z "/>
<path style="fill:none;stroke:#000;fill-rule:evenodd;fill-opacity:.75;stroke-width:2.029" id="svg_51" d="m 265.6988,133.3479 c 0,0 3.64627,0.607727 2.43085,6.07715 -1.21542,5.46944 -2.43085,3.03857 -2.43085,3.03857"/>
<path style="fill:#acf0ff;stroke:#000;fill-rule:evenodd;stroke-width:.609" id="svg_50" d="m 267.5219,152.187 c 0,0 -3.03857,6.07716 0.607727,8.50803 3.64627,2.43086 1.21542,-5.46945 -0.607727,-8.50803 z "/>
<path style="fill-rule:evenodd;fill-opacity:.216" id="svg_49" d="m 227.4127,208.0969 c 0,0 4.86173,3.03857 10.3312,-1.21544 5.46944,-4.254 20.0546,-15.8006 21.27,-20.6623 1.21545,-4.86173 0.607727,-10.3312 0.607727,-10.3312 0,0 2.43085,6.68486 1.21542,11.5466 -1.21542,4.86173 -14.5852,20.6623 -17.6237,21.27 -3.03857,0.607712 -10.9389,4.86171 -15.8006,-0.607712 z "/>
<path style="stroke-dasharray:3.0440025 6.0880050;fill:none;stroke:#00e7e0;fill-rule:evenodd;stroke-linejoin:round;fill-opacity:.75;stroke-linecap:round;stroke-width:3.044" id="svg_48" d="m 223.7664,220.2512 c 0,0 -0.607697,5.46944 3.03859,9.72343 3.64629,4.25401 7.9003,9.11574 14.5852,9.72345 6.68486,0.607712 9.72343,1.21544 18.8392,-4.254 9.11572,-5.46945 15.8006,-11.5466 20.0546,-17.6237 4.254,-6.07715 4.254,-6.68486 4.254,-6.68486"/>
<path style="fill-rule:evenodd;fill-opacity:.265" id="svg_47" d="m 193.3806,236.6595 c 0,0 25.524,3.03857 32.8166,7.2926 7.29257,4.25398 7.29257,3.03856 7.90028,4.25398 0.607727,1.21544 -1.21542,6.68488 -1.21542,6.68488 0,0 6.07716,-5.46944 3.64629,-8.508 -2.43086,-3.03859 -38.2861,-12.762 -43.1478,-9.72347 z "/>
<path style="fill-rule:evenodd;fill-opacity:.265" id="svg_46" d="m 310.062,234.2286 c 0,0 -46.1864,6.07715 -52.8712,9.72347 -6.68488,3.64629 -9.11574,4.25398 -9.11574,4.25398 0,0 18.2315,-10.9389 23.7009,-11.5466 5.46945,-0.607712 38.2861,-2.43086 38.2861,-2.43086 z "/>
<path style="fill-rule:evenodd;fill-opacity:.265" id="svg_45" d="m 318.5699,308.3699 c 0,0 2.43088,-6.68487 0.607758,-13.9774 -1.82318,-7.29257 4.25397,6.68487 3.03854,12.1543 -1.21542,5.46945 -1.21542,16.4083 -1.21542,18.2315 0,1.82315 -2.43088,-16.4083 -2.43088,-16.4083 z "/>
<path style="fill:#fff;stroke:#000;fill-rule:evenodd;stroke-width:2.029" id="svg_44" d="m 189.1266,96.2772 c 0,0 -3.6463,-4.86172 1.21544,-10.9389 4.86171,-6.07715 3.64629,-9.72347 10.9389,-10.9389 7.29257,-1.21543 21.8778,0 30.3858,4.86174 8.50801,4.86172 30.3857,17.016 31.6012,21.8777 1.21542,4.86174 2.43088,7.29259 2.43088,7.29259 0,0 -13.3698,-13.3697 -20.6623,-15.8006 -7.2926,-2.43086 -19.4469,-8.50801 -27.9549,-7.29258 -8.50803,1.21543 -12.1543,3.64629 -19.4469,7.29258 -7.29257,3.64629 -8.50801,3.64629 -8.50801,3.64629 z "/>
<path style="fill:#fff;stroke:#000;fill-rule:evenodd;stroke-width:2.029" id="svg_43" d="m 165.7019,423.3386 c 0,0 -2.65184,-15.0271 -10.6074,-18.5629 -7.95554,-3.53583 -23.8666,-15.9111 -23.8666,-10.6074 0,5.30368 -5.30372,0.883942 -1.76793,-9.72345 3.53581,-10.6074 12.3753,-32.7061 12.3753,-32.7061 0,0 0,7.07162 0.883926,11.4914 0.883972,4.41974 16.795,7.95554 20.3308,16.795 3.53581,8.83948 5.30371,10.6074 6.18765,20.3308 0.883942,9.72345 -3.53581,21.2148 -3.53581,22.9827 z "/>
<path style="fill:#fff;stroke:#000;fill-rule:evenodd;stroke-width:2.029" id="svg_42" d="m 311.5536,405.6596 c 0,0 15.9111,-14.1432 32.7061,-22.0987 16.795,-7.95557 25.6346,-7.95557 29.1703,-10.6074 3.5358,-2.65182 7.95554,-1.76788 7.07159,7.95554 -0.883942,9.72348 4.41974,12.3753 -1.76788,23.8667 -6.18765,11.4913 -7.95557,17.679 -15.0272,21.2148 -7.07159,3.5358 -12.3753,0.883942 -12.3753,0.883942 0,0 7.07159,0 9.72342,-5.30368 2.65186,-5.30371 5.30371,-14.1432 -4.41974,-17.679 -9.72345,-3.5358 -23.8666,-5.30368 -29.1703,-3.5358 -5.30368,1.76791 -15.9111,5.30371 -15.9111,5.30371 z "/>
<path style="stroke-dasharray:1.7000000 3.4000000;fill:#389c25;stroke:#000;fill-rule:evenodd;stroke-linejoin:round;stroke-linecap:round;stroke-width:1.7" id="svg_41" d="m 213.3203,569.5661 a 16.2462,11.6549 0 1,1 -32.4925,0 16.2462,11.6549 0 1,1 32.4925,0 z " transform="matrix(2.02934, 0, 1.07935, 2.02934, -829.467, -703.217)"/>
<path style="fill:#fef494;stroke:#000;fill-rule:evenodd;stroke-linejoin:round;stroke-linecap:round" id="svg_40" d="m 197.3849,564.3249 c -0.882339,1.17639 0.760742,2.70795 -0.361252,3.65857 -1.12198,0.950562 -2.36281,-0.921753 -3.6682,-0.244629 -1.30539,0.677063 -0.489532,2.76984 -1.91286,3.13953 -1.42333,0.369629 -1.72891,-1.85565 -3.19881,-1.81201 -1.46988,0.043701 -1.64284,2.2832 -3.0856,1.99866 -1.44275,-0.284485 -0.752563,-2.422 -2.09584,-3.02045 -1.34328,-0.598389 -2.47078,1.3443 -3.64722,0.461975 -1.17644,-0.882324 0.372833,-2.50873 -0.577759,-3.63068 -0.950623,-1.12201 -2.80936,0.139099 -3.48647,-1.16632 -0.677094,-1.30536 1.42439,-2.09845 1.05473,-3.52179 -0.369644,-1.42334 -2.59148,-1.09363 -2.63515,-2.56348 -0.043671,-1.46991 2.19382,-1.27264 2.47833,-2.71539 0.284515,-1.44281 -1.86035,-2.10974 -1.26193,-3.453 0.598434,-1.34326 2.52875,-0.194763 3.41109,-1.37122 0.882309,-1.17639 -0.760757,-2.70795 0.361221,-3.65857 1.12199,-0.950562 2.36284,0.921753 3.66821,0.244629 1.30539,-0.677063 0.489532,-2.76984 1.91286,-3.13953 1.42333,-0.369629 1.72891,1.85565 3.19881,1.81201 1.46989,-0.043701 1.64285,-2.2832 3.0856,-1.99866 1.44275,0.284485 0.752563,2.422 2.09584,3.02045 1.34328,0.598389 2.47078,-1.3443 3.64722,-0.461975 1.17642,0.882324 -0.372833,2.50873 0.577774,3.63068 0.950592,1.12201 2.80934,-0.139099 3.48645,1.16632 0.677109,1.30536 -1.42439,2.09845 -1.05473,3.52179 0.369644,1.42334 2.59149,1.09363 2.63515,2.56348 0.043671,1.46991 -2.19383,1.27264 -2.47833,2.71539 -0.284515,1.44281 1.86034,2.10974 1.26192,3.453 -0.598419,1.34326 -2.52875,0.194763 -3.41106,1.37122 z " transform="matrix(1.78425, 0, 0, 1.58092, -155.039, -454.077)"/>
<path style="fill:#feba94;stroke:#000;fill-rule:evenodd;stroke-linejoin:round;stroke-linecap:round" id="svg_39" d="m 197.3849,564.3249 c -0.882339,1.17639 0.760742,2.70795 -0.361252,3.65857 -1.12198,0.950562 -2.36281,-0.921753 -3.6682,-0.244629 -1.30539,0.677063 -0.489532,2.76984 -1.91286,3.13953 -1.42333,0.369629 -1.72891,-1.85565 -3.19881,-1.81201 -1.46988,0.043701 -1.64284,2.2832 -3.0856,1.99866 -1.44275,-0.284485 -0.752563,-2.422 -2.09584,-3.02045 -1.34328,-0.598389 -2.47078,1.3443 -3.64722,0.461975 -1.17644,-0.882324 0.372833,-2.50873 -0.577759,-3.63068 -0.950623,-1.12201 -2.80936,0.139099 -3.48647,-1.16632 -0.677094,-1.30536 1.42439,-2.09845 1.05473,-3.52179 -0.369644,-1.42334 -2.59148,-1.09363 -2.63515,-2.56348 -0.043671,-1.46991 2.19382,-1.27264 2.47833,-2.71539 0.284515,-1.44281 -1.86035,-2.10974 -1.26193,-3.453 0.598434,-1.34326 2.52875,-0.194763 3.41109,-1.37122 0.882309,-1.17639 -0.760757,-2.70795 0.361221,-3.65857 1.12199,-0.950562 2.36284,0.921753 3.66821,0.244629 1.30539,-0.677063 0.489532,-2.76984 1.91286,-3.13953 1.42333,-0.369629 1.72891,1.85565 3.19881,1.81201 1.46989,-0.043701 1.64285,-2.2832 3.0856,-1.99866 1.44275,0.284485 0.752563,2.422 2.09584,3.02045 1.34328,0.598389 2.47078,-1.3443 3.64722,-0.461975 1.17642,0.882324 -0.372833,2.50873 0.577774,3.63068 0.950592,1.12201 2.80934,-0.139099 3.48645,1.16632 0.677109,1.30536 -1.42439,2.09845 -1.05473,3.52179 0.369644,1.42334 2.59149,1.09363 2.63515,2.56348 0.043671,1.46991 -2.19383,1.27264 -2.47833,2.71539 -0.284515,1.44281 1.86034,2.10974 1.26192,3.453 -0.598419,1.34326 -2.52875,0.194763 -3.41106,1.37122 z " transform="matrix(1.78425, 0, 0, 1.58092, -136.404, -439.743)"/>
<path style="fill-rule:evenodd;fill-opacity:.059" id="svg_38" d="m 171.9523,346.5538 c 0,0 30.8403,5.60733 64.4842,2.80368 33.6439,-2.80368 11.2146,3.73819 11.2146,3.73819 0,0 -57.0078,-3.73819 -64.4842,-0.93454 -7.47643,2.80365 -7.47643,45.7931 -7.47643,45.7931 l -3.7382,-51.4005 z "/>
<path style="fill-rule:evenodd;fill-opacity:.108" id="svg_37" d="m 304.6589,359.6376 c 0,0 -12.1492,36.4476 -13.0837,39.2513 -0.93457,2.80365 2.80365,6.54187 2.80365,6.54187 l 13.0837,4.6728 -11.2146,3.7382 c 0,0 -12.1492,5.60733 -9.34555,-10.2801 2.80368,-15.8874 17.7565,-43.924 17.7565,-43.924 z "/>
<path style="fill-rule:evenodd;fill-opacity:.027" id="svg_36" d="m 184.1015,955.8829 c 0,0 16.8219,-76.6334 18.6911,-170.089 1.86909,-93.4554 -14.9529,-177.565 -9.34555,-213.078 5.60733,-35.5131 13.0838,-74.7643 13.0838,-74.7643 0,0 -9.34554,76.6334 -9.34554,89.7171 0,13.0838 14.9529,130.838 14.9529,171.958 0,41.1204 -16.822,162.612 -11.2146,181.303 5.60733,18.6911 50.4659,48.5968 22.4293,37.3821 -28.0366,-11.2146 -33.644,-20.5602 -39.2513,-22.4293 z "/>
<path style="fill-rule:evenodd;fill-opacity:.027" id="svg_35" d="m 258.8658,505.4279 c 0,0 20.5602,106.539 24.2984,140.183 3.73819,33.6439 14.9529,162.612 24.2984,181.303 9.34555,18.6911 42.9895,99.0627 56.0732,125.23 13.0837,26.1675 7.47641,31.7748 29.9057,26.1675 22.4293,-5.6073 84.1099,-1.86908 44.8586,-7.47644 -39.2513,-5.6073 -52.335,1.86914 -65.4188,-24.2983 -13.0838,-26.1675 -52.3351,-97.1936 -63.5497,-143.921 -11.2146,-46.7277 -26.1675,-207.471 -31.7748,-224.293 -5.60733,-16.822 -18.6911,-72.8952 -18.6911,-72.8952 z "/>
<path style="fill-rule:evenodd;fill-opacity:.016" id="svg_34" d="m 389.4457,682.7609 c 0,0 14.8833,24.8055 26.0457,34.7277 11.1624,9.92218 79.3774,65.7344 86.8191,70.6956 7.44162,4.96106 33.4873,19.8444 45.8901,24.8054 12.4027,4.96112 55.8123,16.1236 65.7344,21.0847 9.92218,4.96112 23.5652,8.68188 29.7665,17.3638 6.20136,8.68188 11.1625,26.0457 12.4028,33.4874 1.24023,7.44165 1.24023,13.643 -6.20142,21.0847 -7.44159,7.44159 -26.0457,19.8444 -33.4874,23.5652 -7.44159,3.72082 -55.8123,17.3638 -81.858,24.8054 -26.0457,7.44165 -104.183,26.0457 -104.183,26.0457 0,0 58.2928,-26.0457 62.0136,-37.2082 3.72082,-11.1624 47.1304,-40.929 23.5652,-71.9358 -23.5652,-31.0068 -70.6955,-68.215 -96.7413,-107.904 -26.0457,-39.6887 -29.7665,-80.6177 -29.7665,-80.6177 z "/>
</g>
</symbol>
<symbol width="744.09448" x="0" y="0" height="1052.3622" xmlns:xlink="http://www.w3.org/1999/xlink" id="svg_122">
<g id="svg_80">
<path style="stroke:#000;fill-rule:evenodd;stroke-width:2.8" id="svg_113" d="m 239.2968,937.2802 c -1.13403,3.02405 -1.89006,1.51202 -1.51204,15.4983 0.378006,13.9862 1.51204,18.5223 6.42612,28.3505 4.91409,9.82819 20.0343,19.2783 35.5326,19.2783 15.4983,0 24.9484,3.78009 24.1924,-6.04816 -0.756012,-9.82812 -8.69415,-28.3504 -8.69415,-34.7766 0,-6.42609 13.9862,7.93817 24.5704,15.4983 10.5842,7.56012 34.7765,11.3401 41.2027,11.3401 6.42609,0 17.0103,0.378052 17.3883,-3.78003 0.378021,-4.15808 1.13403,-11.3402 -6.80411,-16.2543 -7.93811,-4.91406 -22.3024,-15.4983 -23.8144,-20.4124 -1.51202,-4.91406 -3.78009,-12.8522 -3.78009,-12.8522 0,0 -75.2232,-18.1443 -83.5394,-12.0961 -8.31613,6.04804 -21.1683,16.2542 -21.1683,16.2542 z "/>
<path style="fill:#282826;stroke:#000;fill-rule:evenodd;stroke-width:2.8" id="svg_112" d="m 407.9088,560.8454 c 0,0 -2.38272,26.2098 -3.17694,50.8312 -0.79425,24.6213 -13.502,138.197 -16.679,144.551 -3.17694,6.35388 -8.73663,19.856 -8.73663,26.2098 0,6.35394 0.794281,14.2963 -0.79422,23.8271 -1.58847,9.53082 -19.0617,47.6543 -21.4444,61.1563 -2.38275,13.502 -2.38275,12.7078 -7.14816,36.5349 -4.76544,23.8271 -3.17697,32.5638 -3.17697,32.5638 l -46.86,-5.5596 c 0,0 7.14813,9.53082 -14.2963,11.9136 -21.4444,2.38269 -50.037,-10.3251 -50.037,-10.3251 0,0 13.502,-158.848 13.502,-180.292 0,-21.4445 -5.55969,-150.905 -4.76546,-162.819 0.79425,-11.9136 50.8312,-34.9465 68.3045,-61.9505 17.4732,-27.0041 36.535,-79.4238 54.8024,-68.3045 18.2675,11.1193 40.5061,101.662 40.5061,101.662 z "/>
<path style="fill:#592a00;stroke:#000;fill-rule:evenodd;stroke-width:2.8" id="svg_111" d="m 295.9246,109.7301 c 0,0 -10.0793,-9.16299 -7.33038,-28.4053 2.74887,-19.2423 13.7445,-37.5683 22.9075,-38.4846 9.16299,-0.91629 31.1542,-5.49777 42.1498,0.916321 10.9956,6.4141 25.6564,10.0793 26.5727,21.0749 0.91629,10.9956 1.83258,27.489 0,36.652 -1.83261,9.16299 -10.0793,20.1586 -10.0793,20.1586 l -74.2203,-11.9119 z "/>
<path style="fill:#ffc37c;stroke:#000;fill-rule:evenodd;stroke-width:2.8" id="svg_110" d="m 312.4179,162.8755 l -2.7489,-11.9119 c 0,0 -13.7445,-31.1542 -14.6608,-37.5683 -0.916321,-6.4141 5.49777,-8.2467 2.74887,-17.4097 -2.74887,-9.16299 -6.41409,-8.24668 -3.66519,-15.5771 2.7489,-7.33038 21.0749,-13.7445 29.3216,-14.6608 8.24667,-0.916321 21.0749,-3.66522 25.6564,-7.33041 4.58148,-3.6652 0.91629,-6.4141 7.33038,-2.74891 6.41409,3.66523 16.4934,12.8282 16.4934,21.9912 0,9.16299 -0.91629,38.4846 0.916321,32.9868 1.83258,-5.4978 3.66519,-18.326 5.49777,-13.7445 1.83261,4.58149 3.66522,14.6608 2.7489,17.4097 -0.91629,2.7489 -9.16299,21.9912 -9.16299,24.7401 0,2.7489 -2.74887,23.8238 -2.74887,23.8238 l -16.4934,71.4713 -41.2335,-71.4713 z "/>
<path style="fill:#fff;stroke:#000;fill-rule:evenodd;stroke-width:2.8" id="svg_109" d="m 300.506,161.0429 l 9.5164,-5.6418 c 0,0 5.14435,10.2233 12.4747,15.7211 7.33041,5.49782 21.9912,10.0793 28.4053,7.33043 6.41409,-2.7489 21.7032,-14.8703 16.4934,-9.16301 3.66519,2.7489 6.41409,10.9956 6.41409,10.9956 0,0 2.7489,117.286 1.83258,120.952 -0.91629,3.66522 -8.24667,79.7181 -8.24667,79.7181 l -34.8194,-96.2115 c 0,0 -41.2335,-93.4625 -32.0705,-123.7 z "/>
<path style="fill:none;stroke:#000;fill-rule:evenodd;fill-opacity:.75;stroke-linecap:round;stroke-width:5.6" id="svg_108" d="m 305.584,162.714 c 0,0 3.96814,11.1107 11.1107,16.6661 7.14261,5.55537 42.062,28.5705 47.6174,10.3171 5.55536,-18.2534 5.55536,-16.6661 5.55536,-16.6661"/>
<g id="svg_105" transform="matrix(2.75912, 0, 0, 3.0915, -538.039, -1137.06)">
<path style="stroke:#000;fill-rule:evenodd" id="svg_107" d="m 320.5028,429.2068 c 0,0 5.61584,-2.60736 6.81921,-1.80508 1.2034,0.802246 1.2034,4.01129 0.601715,5.61581 -0.601715,1.60452 -7.62149,-3.40961 -10.0283,-3.81073 -2.40677,-0.401123 -7.01977,-2.60736 -7.62146,-1.00284 -0.601685,1.60452 -0.401123,6.41809 1.60452,6.2175 2.00565,-0.200562 8.62427,-5.21466 8.62427,-5.21466 z "/>
<path style="stroke:#000;fill-rule:evenodd;stroke-linejoin:round;stroke-linecap:round;stroke-width:.4" id="svg_106" d="m 322.5085,430.0091 a 2.40678,2.20621 0 1,1 -4.81357,0 2.40678,2.20621 0 1,1 4.81357,0 z "/>
</g>
<path style="stroke-opacity:.076;fill:none;stroke:#000;fill-rule:evenodd;fill-opacity:.75;stroke-width:1.4" id="svg_104" d="m 348.9645,199.8279 c 0,0 10.109,81.9952 11.2322,108.953 1.12323,26.9573 4.49289,71.8862 4.49289,71.8862"/>
<path style="fill:#282826;stroke:#000;fill-rule:evenodd;stroke-width:2.8" id="svg_103" d="m 371.0611,172.0385 c 0,0 -0.91629,2.74889 7.33038,8.24669 8.2467,5.4978 67.8062,31.1542 67.8062,31.1542 0,0 16.4934,132.863 19.2423,140.194 2.7489,7.33041 8.2467,11.9119 7.33038,17.4097 -0.916321,5.4978 -3.66519,11.9119 -3.66519,16.4934 0,4.58148 -0.91629,-2.7489 -0.91629,10.0793 0,12.8282 -57.7269,95.2951 -57.7269,95.2951 l -17.4097,-9.163 c 0,0 4.58151,8.24667 11.9119,2.7489 7.33038,-5.49783 11.9119,-37.5683 11.9119,-37.5683 0,0 0,-10.9956 -9.16296,-17.4097 -9.16303,-6.41409 -12.8282,-10.0793 -16.4934,-8.2467 -3.66516,1.83261 18.326,-20.1586 24.7401,-32.9868 6.41409,-12.8282 -0.91629,-30.2379 -0.91629,-30.2379 0,0 -4.58151,4.58148 -4.58151,14.6608 0,10.0793 -1.83258,25.6564 -1.83258,25.6564 l -27.489,35.7357 11.9119,47.6476 16.4934,9.163 c 0,0 2.7489,26.5728 2.7489,38.4846 0,11.9119 1.83261,24.7401 0,30.2379 -1.83261,5.4978 -6.41409,10.9956 -12.8282,10.0793 -6.41412,-0.91626 -43.0661,-150.273 -39.4009,-179.595 3.66522,-29.3216 12.8282,-96.2115 11.9119,-132.863 -0.91629,-36.652 -0.91629,-85.2159 -0.91629,-85.2159 z "/>
<path style="fill:#7f8283;fill-rule:evenodd;fill-opacity:.249" id="svg_102" d="m 372.8937,179.3689 l 15.5771,7.3304 c 0,0 8.24667,50.3965 7.33038,74.2203 -0.916321,23.8238 -3.66519,59.5595 -9.16299,73.304 -5.4978,13.7445 -22.9075,38.4846 -22.9075,38.4846 l 10.9956,-94.3789 v -43.9824 l -1.8326,-54.978 z "/>
<path style="fill:#fff;stroke:#000;fill-rule:evenodd;stroke-width:2.8" id="svg_101" d="m 391.2197,424.0209 c 0,0 0,-5.4978 5.4978,-1.83261 5.49783,3.66516 15.5771,9.16299 16.4934,15.5771 0.916321,6.41409 3.66519,7.33041 0.916321,18.326 -2.7489,10.9956 -1.83261,21.9912 -6.41409,24.7401 -4.58151,2.74893 -11.9119,5.49783 -12.8282,0.916321 -0.91629,-4.58151 -7.4841,-1.55441 -1.98633,-9.80112 5.99194,3.61273 16.6472,-9.44119 14.8146,-21.3531 -1.83261,-11.9119 -3.66522,-17.4097 -8.2467,-20.1586 -4.58154,-2.74893 -8.24674,-6.41409 -8.24674,-6.41409 z "/>
<path style="fill:none;stroke:#000;fill-rule:evenodd;fill-opacity:.75;stroke-width:2.8" id="svg_100" d="m 344.4884,93.2367 c 0,0 2.7489,-2.74887 7.33041,-2.74887 4.58148,0 9.16299,0.91629 9.16299,0.91629"/>
<path style="fill:none;stroke:#000;fill-rule:evenodd;fill-opacity:.75;stroke-width:1.915" id="svg_99" d="m 323.693,95.1264 c 0,0 -5.13416,-1.07083 -8.80142,0 -3.66724,1.07083 -7.33447,3.21249 -7.33447,3.21249"/>
<path style="fill:none;stroke:#000;fill-rule:evenodd;fill-opacity:.75;stroke-width:2.588" id="svg_98" d="m 330.1378,96.7777 c 0,0 0.950684,-0.72953 0.717316,6.24046 -0.233337,6.97004 -1.15424,12.9586 -3.45032,16.9842 -2.29611,4.02557 1.5365,6.36644 5.7637,6.14078 4.2273,-0.225693 7.63538,-0.577309 7.63538,-0.577309"/>
<path style="fill:#c73431;fill-rule:evenodd" id="svg_97" d="m 319.7483,139.0517 c 0,0 11.9119,-2.7489 16.4934,-1.83261 4.58148,0.916321 10.9956,1.83261 13.7445,0.916321 2.7489,-0.916321 -8.24667,6.41411 -14.6608,5.49779 -6.41412,-0.91629 -15.5771,-4.5815 -15.5771,-4.5815 z "/>
<path style="fill:#282826;stroke:#000;fill-rule:evenodd;stroke-width:2.8" id="svg_96" d="m 305.0876,155.5451 c 0,0 -10.9956,10.0793 -19.2423,14.6608 -8.2467,4.5815 -61.3921,19.2423 -66.8899,22.9075 -5.49779,3.66519 -11.9119,11.9119 -11.9119,11.9119 0,0 -14.6608,88.8811 -16.4934,110.872 -1.83258,21.9912 0,46.7313 -1.83258,61.3921 -1.83261,14.6608 11.9119,154.855 11.9119,154.855 0,0 18.326,-16.4934 35.7357,-17.4097 17.4097,-0.916321 28.4053,-2.74893 28.4053,-2.74893 0,0 -14.6608,-105.374 -14.6608,-120.952 0,-15.5771 4.58151,-80.6343 5.4978,-88.881 0.916275,-8.2467 -2.7489,49.4802 -2.7489,80.6343 -1.83258,27.489 1.83261,56.8106 1.83261,56.8106 l 10.0793,73.304 -23.8238,59.5594 c 0,0 88.8811,12.8282 95.2952,-11.9119 6.41409,-24.7401 26.5727,-84.2996 24.7401,-109.956 -1.83261,-25.6564 4.58148,-81.5507 4.58148,-81.5507 0,0 -31.1542,-110.872 -40.3172,-141.11 -9.16303,-30.2379 -21.9912,-44.8987 -21.9912,-58.6432 0,-13.7445 1.83261,-13.7445 1.83261,-13.7445 z "/>
<path style="fill:#ffc37c;stroke:#000;fill-rule:evenodd;stroke-width:2.8" id="svg_95" d="m 216.6682,526.7628 c 0,0 3.45901,36.0724 4.4473,40.5197 0.988281,4.44733 17.7892,20.7541 17.7892,20.7541 0,0 -8.89458,-11.8595 -9.38872,-15.3185 -0.494141,-3.45898 -0.494141,-15.8126 -0.494141,-15.8126 l .9883,17.7891 c 0,0 9.38872,15.8126 11.8594,15.8126 2.4707,0 4.4473,-1.48248 4.4473,-1.48248 0,0 -5.43559,-8.40039 -5.92973,-12.3536 -0.494141,-3.95312 0,-19.2715 0,-19.2715 0,0 0,15.3184 0.494141,18.2833 0.494156,2.96484 6.91801,17.7892 9.38872,20.2599 2.47072,2.4707 6.918,2.96484 7.90631,0.988281 0.988281,-1.97656 2.4707,-4.44727 2.4707,-4.44727 0,0 -7.41213,-8.89459 -7.41213,-13.3419 0,-4.44733 -0.988312,-22.7306 -0.988312,-22.7306 0,0 0.494141,17.7891 1.97658,21.2481 1.48244,3.45904 4.4473,11.8594 6.42386,13.8361 1.97659,1.97656 2.96487,2.96484 5.92972,0.494141 2.96484,-2.47076 3.45902,-1.97656 3.45902,-7.41217 0,-5.43555 -3.45902,-4.94141 -4.4473,-10.377 -0.988281,-5.43561 -0.988281,-20.754 -0.988281,-20.754 0,0 0.988281,13.3419 4.44727,17.295 3.45902,3.95312 14.8243,2.96484 14.8243,2.96484 0,0 -6.918,-8.40045 -7.41214,-13.3419 -0.494141,-4.94141 0,-17.7892 -1.97659,-22.2364 -1.97656,-4.44727 -12.3535,-20.2599 -12.3535,-20.2599 0,0 -11.8595,-1.97656 -17.7892,-1.48242 -5.9297,0.494141 -27.672,10.377 -27.672,10.377 z "/>
<path style="fill:#3d3e3d;fill-rule:evenodd" id="svg_94" d="m 300.506,160.1266 l -13.7445,10.9956 -3.6652,2.7489 c 0,0 4.58148,52.2291 21.9912,101.709 17.4097,49.4802 21.9912,61.3921 32.9868,75.1366 10.9956,13.7445 25.6564,17.4097 25.6564,17.4097 0,0 -28.4053,-97.1278 -32.0705,-107.207 -3.66519,-10.0793 -10.9956,-38.4846 -17.4097,-54.0617 -6.41409,-15.5771 -16.4934,-32.9868 -15.5771,-36.652 0.91629,-3.66519 1.83258,-10.0793 1.83258,-10.0793 z "/>
<path style="fill:#fff;stroke:#000;fill-rule:evenodd;stroke-width:2.8" id="svg_93" d="m 208.8761,527.5628 c 0,0 8.2467,-10.0793 21.9912,-11.9119 13.7445,-1.83258 32.0705,-1.83258 32.0705,-1.83258 l 1.8326,4.5815 c 0,0 -5.4978,-2.7489 -18.326,1.83258 -12.8282,4.58154 -27.489,4.58154 -28.4053,9.16302 -0.916306,4.58148 0,8.2467 0,8.2467 -3.95314,-4.44733 -8.53462,1.06024 -11.2835,-3.52124 -2.74892,-4.58148 2.12051,-6.55804 2.12051,-6.55804 z "/>
<path style="fill-rule:evenodd;fill-opacity:.243" id="svg_92" d="m 321.9756,162.0339 c 0,0 13.3125,4.43753 20.7084,1.47917 7.39584,-2.95833 16.2709,-4.4375 19.2292,-10.3542 2.95837,-5.91667 -1.47916,7.39589 -13.3126,11.8334 -11.8334,4.43753 -26.6251,-2.95834 -26.6251,-2.95834 z "/>
<path style="fill:url(#svg_91);stroke:#000;fill-rule:evenodd;stroke-linejoin:round;stroke-linecap:round;stroke-width:.4" id="svg_90" d="m311.666656,398.390442a2.90537,1.58475 0 1 1 -5.81073,0a2.90537,1.58475 0 1 1 5.81073,0z" transform="matrix(2.4235, -0.197096, 0.25727, 1.85666, -534.13, -577.653)"/>
<path style="fill:url(#svg_89);stroke:#000;fill-rule:evenodd;stroke-linejoin:round;stroke-linecap:round;stroke-width:.4" id="svg_88" d="m311.666656,398.390442a2.90537,1.58475 0 1 1 -5.81073,0a2.90537,1.58475 0 1 1 5.81073,0z" transform="matrix(2.42843, -0.122247, 0.199877, 1.86371, -477.404, -605.82)"/>
<path style="fill:#fff;stroke:#000;fill-rule:evenodd;stroke-width:2.275" id="svg_87" d="m 322.8074,174.2193 l 7.8885,17.0328 13.9566,-7.1717 12.1361,7.1717 4.8545,-17.0328 -14.5634,8.0681 -24.2723,-8.0681 z "/>
<path style="fill:none;stroke:#000;fill-rule:evenodd;fill-opacity:.75;stroke-width:2.8" id="svg_86" d="m 297.5098,926.989 c 0,0 25.4156,-149.317 28.5926,-169.967 3.17697,-20.6502 9.53085,-139.786 15.8848,-168.378 6.35391,-28.5926 3.17694,-30.1811 3.17694,-30.1811"/>
<path style="stroke-opacity:.389;fill:none;stroke:#000;fill-rule:evenodd;fill-opacity:.75;stroke-width:1.96" id="svg_85" d="m 388.0529,566.405 c 0,0 3.17697,108.016 -9.53085,166.79 -12.7078,58.7736 -41.3004,187.44 -36.5349,200.148"/>
<path style="stroke-opacity:.389;fill:none;stroke:#000;fill-rule:evenodd;fill-opacity:.75;stroke-width:1.96" id="svg_84" d="m 316.5715,572.7589 c 0,0 3.17697,88.9547 -11.1193,189.029 -14.2963,100.074 -19.0617,176.321 -19.0617,176.321"/>
<path style="fill-rule:evenodd;fill-opacity:.297" id="svg_83" d="m 304.7903,160.3331 l 5.5554,-3.1745 c 0,0 2.38086,6.349 1.58722,15.0789 -0.79361,8.72987 -4.76172,15.8725 -4.76172,15.8725 0,0 -3.96811,-20.6342 -2.38089,-27.7769 z "/>
<path style="fill:#fff;fill-rule:evenodd;fill-opacity:.297" id="svg_82" d="m 271.4582,988.8765 c 10.3171,1.58728 26.1896,9.5235 27.7768,5.55536 1.58728,-3.96808 3.17453,-8.72986 0,-13.4916 -3.17447,-4.76178 -0.79361,6.349 -5.55533,7.14258 -4.76175,0.79364 -22.2215,0.79364 -22.2215,0.79364 z "/>
<path style="fill:#ffc37c;stroke:#000;fill-rule:evenodd;stroke-width:2.8" id="svg_81" d="m 388.63,423.981 c 0,0 -14.8243,-3.45898 -17.295,-1.97656 -2.4707,1.48242 -10.377,6.42389 -12.8477,6.42389 -2.4707,0 -1.48242,6.42386 3.95316,6.918 5.43558,0.494141 11.3653,-0.494141 11.3653,-0.494141 0,0 -4.94141,4.44727 -10.377,4.44727 -5.43558,0 -14.3301,-1.97656 -14.8243,0.988281 -0.494141,2.96487 2.47073,6.42386 9.3887,6.42386 6.91803,0 17.295,0.494141 17.295,0.494141 0,0 -21.7423,0.494141 -25.2013,0.988281 -3.45902,0.494171 -5.92972,5.43561 -3.45902,5.92975 2.47073,0.494141 19.2716,3.45898 23.7189,3.95312 4.44727,0.494171 -20.2599,-1.48242 -23.2248,-0.494141 -2.96484,0.988312 0,3.45902 3.45902,4.4473 3.45902,0.988281 23.7189,5.43558 23.7189,5.43558 0,0 -22.2364,-5.43558 -20.2599,-1.97656 1.97656,3.45902 10.8712,7.41214 16.8009,8.89456 5.92972,1.48245 26.1896,-0.988281 26.1896,-0.988281 0,0 6.918,-3.95312 8.40045,-9.88287 1.48242,-5.92972 2.4707,-17.7892 0.988281,-20.2599 -1.48245,-2.47073 -7.41217,-11.8595 -10.377,-13.836 -2.96484,-1.97659 -7.41214,-5.43561 -7.41214,-5.43561 z "/>
</g>
</symbol>
</defs>
<g>
<rect width="238.488" x="10.345334" y="11.524667" height="238.489" style="fill:none" id="svg_1"/>
<g id="svg_2">
<path style="fill:#7f003f" id="svg_3" d="m 203.209,208.678 c 0,6.526 -35.34,11.816 -78.928,11.816 -43.591,0 -78.93,-5.28999 -78.93,-11.816 0,-6.52501 35.339,-11.823 78.93,-11.823 43.588,-0.000992 78.928,5.297 78.928,11.823 z "/>
<path style="fill:#fff" id="svg_4" d="m 203.131,206.228 c 0,6.53 -35.335,11.823 -78.931,11.823 -43.593,0 -78.928,-5.293 -78.928,-11.823 0,-6.526 35.335,-11.817 78.928,-11.817 43.596,-0.000992 78.931,5.29001 78.931,11.817 z "/>
<g id="svg_5">
<rect width="121.218" x="63.671" y="143.372333" height="53.255" style="fill:#ffaad4" id="svg_6"/>
<g id="svg_7">
<path style="fill:#faf" id="svg_8" d="m 184.889,145.2533 c 0,4.732 -27.136,12.074 -60.608,12.074 -33.471,0 -60.61,-7.34201 -60.61,-12.074 0,-4.727 27.139,-8.561 60.61,-8.561 33.472,0 60.608,3.834 60.608,8.561 z "/>
</g>
<path style="fill:#7f003f" id="svg_9" d="m 184.889,204.8283 c 0,0 -26.382,6.062 -60.413,6.065 -35.232,0.005005 -61.685,-6.065 -61.685,-6.065 v -17.21 c 0,0 26.452,5.97499 61.051,6.06799 35.318,0.094009 61.046,-6.06799 61.046,-6.06799 v 17.21 h 0.000992 z "/>
</g>
<g id="svg_10">
<rect width="95.178" x="76.237" y="88.314" height="49.637" style="fill:#ffaad4" id="svg_11"/>
<g id="svg_12">
<path style="fill:#faf" id="svg_13" d="m 171.415,90.071 c 0,4.411 -21.308,11.254 -47.591,11.254 -26.281,0 -47.587,-6.84399 -47.587,-11.254 0,-4.412 21.306,-7.979 47.587,-7.979 26.283,0 47.591,3.568 47.591,7.979 z "/>
</g>
<path style="fill:#7f003f" id="svg_14" d="m 171.415,142.706 c 0,0 -18.739,8.73399 -47.432,8.73399 -24.65,0 -48.434,-8.73399 -48.434,-8.73399 v -13.35 c 0,0 23.784,8.683 47.93,8.73401 27.035,0.059998 47.936,-8.73401 47.936,-8.73401 v 13.35 z "/>
</g>
<rect width="69.198" x="89.243" y="44.043" height="46.419" style="fill:#ffaad4" id="svg_15"/>
<ellipse cx="124.202" cy="45.558" rx="34.958" ry="5.55" style="fill:#faf" id="svg_16"/>
<path style="fill:#7f003f" id="svg_17" d="m 158.441,90.462 c 0,0 -10.094,5.767 -34.241,5.767 -21.979,0 -34.957,-5.767 -34.957,-5.767 v -12.971 c 0,0 25.945,2.882 34.599,2.882 8.646,0 34.599,-2.882 34.599,-2.882 v 12.971 z "/>
<g id="svg_18">
<path style="fill:#ff56aa;fill-rule:evenodd" id="svg_19" d="m 156.492,164.193 c -0.522003,0.446991 -1.91,1.47699 -2.30301,1.701 -5.439,3.10599 -7.713,-1.87801 -12.696,-4.22101 -1.45799,-5.957 -1.427,-10.224 4.561,-13.77 0.134995,-0.084 0.274994,-0.15799 0.419998,-0.237 -0.061996,-0.037994 -0.126999,-0.078995 -0.192001,-0.119995 -6.576,-4.31 -1.42,-11.455 -8.21699,-16.025 8.785,-2.449 11.668,-2.138 15.018,-0.726013 0.01001,-0.12999 0.020004,-0.256989 0.027008,-0.385986 0.345001,-3.50299 2.70799,-4.22498 0.703995,-11.585 5.701,2.603 9.66501,6.493 13.037,13.065 -0.813995,-8.00097 -8.179,-10.545 -7.77899,-10.621 0.912994,-0.157997 7.267,1.519 9.974,4.923 1.07599,1.36098 1.914,3.50899 2.357,5.87898 4.68001,-4.658 10.298,-2.729 14.905,0.651993 1.328,4.64801 1.87604,9.851 -1.08899,13.866 0.853027,0.470993 1.59698,0.996994 2.20099,1.56599 3.327,3.119 3.27902,7.145 3.61999,13.167 -1.81198,-3.19899 -5.78598,-9.847 -14.169,-10.503 6.74899,3.17099 11.9,6.265 15.567,14.896 -3.44797,-2.907 -9.61499,-0.281006 -15.684,-2.47501 0.027008,0.136002 0.048981,0.271011 0.065002,0.401001 0.628021,5.91101 -4.65801,11.184 -8.66,13.941 -8.5,-1.235 -12.087,-5.558 -11.667,-13.388 z "/>
<path style="fill:#ffaad4;fill-rule:evenodd" id="svg_20" d="m 183.362,136.764 c 1.407,2.27701 -3.073,4.19501 -3.104,5.021 -0.056,1.304 0.952011,1.681 2.382,1.065 1.26199,-0.539001 2.795,-1.93599 5.175,-2.994 0.513,-0.227997 -3.853,3.47101 -3.937,4.02901 -0.111008,0.755005 -5.024,2.922 -4.951,3.518 0.121002,0.935989 1.18399,1.42499 1.826,1.69899 1.19099,0.503006 2.90999,-0.373001 7.34099,6.974 -3.017,-2.92999 -7.07999,-4.69099 -8.87399,-4.89899 -3.172,-0.360001 0.916992,-0.766006 3.354,1.28899 3.51399,2.96701 0.423996,1.151 -3.50601,1.52 -2.506,0.23201 -2.461,1.117 -1.957,3.073 0.354004,1.36 7.789,0.284012 16.023,7.705 1.48999,0.949997 -7.35901,-1.767 -8.384,-1.851 -4.067,-0.339996 -5.991,-1.498 -8.92999,-4.02699 -0.602005,-0.518005 -1.75801,-2.865 -2.23901,-3.65201 -1.36499,-2.21699 2.98001,5.13701 3.55701,6.06801 0.623993,1.021 1.77499,5.01199 -1.44299,9.629 -0.12001,0.171997 1.97899,-4.90901 1.01599,-7.14101 -4.25,-9.884 -4.285,2.64999 -6.71699,4.145 -3.01001,1.84999 -1.94701,-8.463 -3.047,-10.252 -0.354004,-0.572006 0.03299,-0.578003 -1.436,-0.895004 -0.464005,-0.098007 -3.87401,0.488998 -3.92101,3.024 -0.018997,0.712006 -3.40399,2.646 -3.392,6.073 0.020004,4.00501 3.914,9.23601 3.31601,8.826 -5.617,-3.884 -3.29201,-11.011 -4.02901,-10.266 -0.069,0.06601 -2.067,1.51001 -4.243,2.09199 -1.3,0.350006 -4.052,0.408005 -6.55301,-2.43799 -0.472,-0.529007 4.46201,2.08299 7.569,0.518997 2.48601,-1.263 5.31,-3.38701 5.93401,-4.142 2.199,-2.627 3.661,-5.804 3.735,-6.26601 0.046997,-0.264999 -1.08101,1.76601 -1.229,1.19701 -0.125,-0.460999 0.428009,-1.584 0.298996,-2.324 -0.084,-0.446991 -2.42699,-0.856003 -2.52499,-1.36 -0.074005,-0.382004 -0.632996,-0.125 -0.645996,-0.526001 -0.029007,-0.875 0.878998,-1.26199 1.11699,-2.23 0.090012,-0.345001 -1.715,-2.524 -5.379,-2.5 -2.28299,0.013 -5.135,0.487 -8.25,0.869003 -2.838,0.345001 -4.07599,-4.373 -4.43399,-9.907 -0.053009,-0.843002 5.662,5.02199 11.132,6.92299 3.86,1.345 8.00301,-1.07599 8.119,-1.36499 0.158997,-0.396011 -12.204,-8.701 -11.478,-8.67401 5.701,0.223999 11.988,4.95601 11.971,4.332 -0.031998,-0.813995 -1.98399,-3.293 -1.92899,-4.03299 0.069,-1.048 7.351,5.98 7.034,0.595993 -0.150009,-2.668 -0.94101,-4.494 -2.27301,-6.869 -3.12099,-5.53497 -10.657,-8.83197 -10.527,-9.34397 0.145004,-0.545998 5.186,2.789 5.40801,2.369 0.069992,-0.138 3.36699,1.328 5.138,3.602 3.148,4.05098 5.58499,10.07 5.72099,9.83598 0.274002,-0.470001 1.04401,-7.4 -5.00301,-11.648 6.64201,3.377 5.75801,9.57598 5.93401,9.33997 1.543,-2.064 4.574,-3.20499 6.01401,-3.15399 -4.00601,3.81999 -4.70001,7.526 -2.696,8.668 1.90399,1.08398 5.60199,-3.51302 7.91699,-1.244 z "/>
<path style="fill:#ff56aa;fill-rule:evenodd" id="svg_21" d="m 186.123,146.689 c -2.552,-1.588 -6.12401,-0.978989 -8.877,-0.735992 -0.453003,0.041992 0.597992,1.049 0.628998,1.34599 0.037003,0.294006 -0.746002,0.484009 -0.951004,0.540009 -0.044998,0.015991 -1.14499,1.00699 0.06601,2.101 -0.587006,0.140991 -0.187012,0.425995 -1.268,0.735992 -0.315994,0.095001 1.314,2.427 1.063,2.651 -0.419998,0.365997 -2.349,-0.153 -2.228,0.289001 0.414993,1.541 -0.791,1.448 0.009995,3.08701 0.399994,0.824997 2.062,3.504 6.018,4.7 3.73399,1.12199 9.86899,1.621 12.492,3.597 -0.852997,-0.876007 -0.548996,-3.09801 -5.72899,-8.297 -0.779007,-0.783005 -6.38301,-4.914 -10.126,-6.004 3.791,-0.115005 7.909,2.51599 7.974,2.56599 7.17799,5.334 8.692,12.292 8.88901,12.902 -3.34201,-2.798 -6.615,-1.76001 -10.453,-1.94501 -2.98201,-0.145004 -5.692,-0.951004 -5.768,-0.938004 -0.190002,0.020004 -1.26599,-2.94299 -3.019,-5.332 -1.364,-1.86299 -2.151,-3.72299 -3.11999,-3.232 -0.754013,1.27 0.78299,4.455 -2.72101,11.957 1.039,-8.135 -0.360992,-11.995 -1.27499,-13.322 -0.214996,-0.303009 -1.017,1.541 -1.138,1.485 -0.483002,-0.220001 -0.345001,-2.06001 -0.787003,-1.71901 -0.977997,0.753998 -1.82001,2.33701 -2.276,2.412 2.737,-4.179 -1.045,-4.065 -1.705,-3.897 -2.69299,0.664001 -3.84799,1.709 -4.388,1.271 -0.848999,-0.661987 1.603,-1.24399 3.177,-2.70699 0.343994,-0.326004 0.604996,-0.67601 0.791,-1.02501 0.195999,-0.384995 -0.209,-0.888992 -0.212997,-1.23399 0,-0.348999 0.399002,-0.550003 0.192993,-0.787003 -0.269989,-0.311005 -0.71199,-0.498001 -1.332,-0.460999 -1.71399,0.093994 -3.89499,-0.311996 -6.30699,-0.111008 -3.20401,0.262009 -6.48401,1.104 -6.297,0.875 0.416,-0.515991 14.892,-2.455 15.52,-3.30699 0.01001,-0.003998 -1.49899,-0.889008 -1.551,-1.25301 -0.067993,-0.460999 1.291,-0.455994 0.944992,-0.848999 -1.862,-2.08 -6.60399,-5.52699 -11.686,-7.82899 11.221,2.49699 13.765,8.81201 13.755,8.571 -0.074997,-2.424 -1.58499,-7.631 -10.537,-12.433 2.571,1.29001 5.013,2.70601 6.91699,4.16501 4.43001,3.39999 4.85901,5.645 6.041,6.051 0.326996,0.110001 0.275009,-2.051 0.481003,-2.232 0.341003,-0.298004 1.317,1.30499 1.409,0.535995 0.225006,-1.79401 -0.203003,-2.953 -0.259003,-3.461 -0.074997,-0.746002 -0.644989,-5.45 -5.459,-10.676 -2.47,-2.68399 -8.202,-5.86499 -8.13399,-5.86499 4.44899,2.12799 7.06999,2.832 9.26999,5.33799 0.516998,0.59201 1.062,1.084 1.49901,1.709 1.33299,1.915 1.96199,3.47899 2.61899,5.35599 0.964005,2.73898 1.64002,5.576 1.78801,6.48399 0.082993,0.513 3.168,1.06601 1.33699,-9.09299 3.46201,8.836 1.345,11.272 1.38301,11.31 0.388,0.373001 1.314,-0.587021 1.7,-0.445999 0.854004,0.302994 -0.154007,2.51 2.143,1.011 2.685,-1.75301 3.92699,-2.931 4.82999,-1.98901 0.076004,0.084015 -5.45299,5.65801 -4.44199,5.785 1.70399,0.209 2.10399,0.727005 2.48299,0.645996 3.884,-0.790985 8.17401,-3.754 8.10001,-8.09399 -0.020004,-0.875992 -0.298996,-4.08099 -0.298996,-4.08099 1.982,4.125 1.325,11.289 -1.177,13.878 z "/>
<path style="fill:#ff007f;fill-rule:evenodd" id="svg_22" d="m 165.877,151.355 c -0.378006,-0.337997 -0.434006,-0.319992 -0.395996,-1.351 0.013992,-0.317001 -3.284,0.634003 -3.416,0.223999 -0.48201,0.037003 2.40599,-2.31099 2.05699,-2.59 -0.759995,-0.619003 -2.92999,-1.127 -3.116,-1.574 -0.341995,-0.843002 3.729,-0.334991 4.396,-1.107 0.047012,-0.046997 -1.18399,-1.537 -1.07999,-1.94299 0.084,-0.31601 1.752,1.20099 1.69499,0.839996 -0.259995,-1.59401 -1.49,-4.338 -1.64099,-4.76201 0.309998,0.387009 2.28299,3.657 2.461,3.927 0.408997,0.639008 0.529999,0.843002 0.959991,0.903 0.753006,0.117004 0.681,-0.511993 0.884003,-0.703003 0.113007,-0.106995 0.483994,-4.52699 1.188,-5.13399 0.233994,-0.20401 0.108002,3.39999 0.373001,3.112 0.457001,-0.484009 0.950989,-1.104 1.453,-1.87201 -0.154007,1.728 -0.134003,0.688004 0.587997,2.185 0.349991,0.718002 1.27199,0.134003 1.92299,0.283005 0.104004,0.020004 -0.735001,1.43201 0.601013,0.867004 1.71899,-0.718002 4.127,-2.627 3.92699,-2.399 -2.743,3.187 -4.46999,4.267 -4.36899,4.401 0.195999,0.274994 1.78,0.666 2.959,0.584 -1.942,0.255005 -2.35301,1.131 -2.278,1.43399 0.091995,0.372009 0.735992,2.15601 1.043,2.56201 0.317001,0.425003 -1.472,0.139999 -1.49,0.360001 -0.147995,1.705 -0.153992,2.049 -2.48599,0.916 -0.207001,-0.102005 -0.088013,1.625 0.380997,3.18199 -1.32201,-1.10899 -1.211,-2.041 -1.396,-1.938 -0.225006,0.121002 -0.327011,0.074005 -0.559006,0.158005 -0.234009,0.078003 0.026993,5.30701 -0.214996,5.352 -0.76001,0.147995 -1.287,-5.01601 -2.134,-5.99501 -0.753998,-0.860992 -1.758,0.577011 -2.313,0.078003 z "/>
<path style="fill:#bf005f;fill-rule:evenodd" id="svg_23" d="m 164.881,145.744 c 0.505005,-0.251999 0.925003,-0.425003 1.34401,-0.587997 0.675995,-0.340012 0.335999,0.248001 0.591995,0.248001 0.470993,0 1.58,-1.17601 2.05901,-1.19701 0.284988,-0.014008 -0.045013,1.112 0.206985,1.112 0.105011,0 1.535,-3.483 2.06601,-3.843 0.315994,-0.214996 -0.324997,2.768 0.026993,2.52501 0.955002,-0.652008 1.89401,-1.28201 1.97101,-1.19701 0.257004,0.246994 -1.662,2.314 -1.662,2.56599 0,0.125 2.263,0.781998 2.301,1.09001 0.085007,0.544998 -0.478989,0.75499 -1.62599,1.271 -0.389999,0.177994 2.345,1.56999 1.43599,1.84 -0.344986,0.106995 -1.767,-0.975006 -2.81299,-0.908005 -0.419006,0.027008 0.963989,2.464 0.702988,2.25401 -0.181992,-0.153 -0.625,-0.334015 -1.14999,-0.516006 -0.321991,-0.117004 -0.414001,1.518 -0.753998,1.41 -0.570007,-0.171997 -1.365,-2.067 -1.65401,-2.15201 -0.567001,-0.171997 -0.959,0.605011 -1.27499,0.382004 -0.429993,-0.307007 0.104004,-1.03799 -0.089996,-1.224 -0.25,-0.251999 -1.43001,0.283005 -2.018,0.283005 -0.669998,0 -0.417999,0.167999 -0.167999,-0.417999 0.167999,-0.378006 1.18401,-1.701 0.173004,-1.48201 -0.279007,0.061005 -1.149,-0.64299 -1.075,-1.10899 0.033997,-0.231003 1.40599,-0.264008 1.40599,-0.347 z "/>
<path style="fill:#ffaad4;fill-rule:evenodd" id="svg_24" d="m 160.25,163.828 c -0.188004,0.220001 -1.873,6.36299 3.42799,10.863 1.694,1.44 5.99,0.824005 5.97101,-5.34799 0.679993,0.354004 0.130997,3.42 1.313,5.22099 0.266998,0.402008 3.08099,-0.291992 5.57199,-4.261 -3.065,6.11 -7.584,8.07201 -7.41499,8.12401 -14.367,-2.135 -10.774,-14.607 -11.283,-14.227 -2.05901,1.795 -4.86099,4.14101 -10.62,1.28101 -2.41701,-1.201 -2.616,-2.064 -4.67601,-2.823 -2.114,-6.125 0.349014,-12.674 5.50101,-14.052 0.339996,-0.094009 1.793,-0.531998 3.479,-0.787003 2.172,-0.335999 5.101,-0.270996 5.52499,-0.309006 0.186005,-0.018997 -9.334,0.598007 -10.519,4.94701 -0.624008,2.302 -1.61,2.726 0.009003,3.633 1.873,1.05301 5.147,-0.796997 5.59,0.065002 0.447006,0.862 -4.332,3.39101 -2.328,5.649 2.38001,2.69299 7.68201,1.449 9.744,0.074997 0.205994,-0.134003 6.131,-9.125 5.543,-8.16499 -0.697998,1.11999 -4.051,8.71399 -4.834,10.114 z  m 1.033,-38.441 c 1.008,1.156 1.929,2.65898 2.76799,4.01997 0.568008,0.931 0.939011,1.69 0.772003,2.38501 -0.056,0.230988 0.139999,0.701996 -0.345001,0.403992 -0.681,-0.466003 -1.91299,-2.96201 -2.44099,-3.819 -0.354004,-0.571999 -0.561996,-1.23398 -0.828003,-1.66199 -0.042999,-0.075981 -0.158005,-0.591988 -0.334,-0.876991 -0.401993,-0.646996 0.306,-0.292999 0.408005,-0.450996 z  m 25.564,8.551 c -0.117996,-0.028 -1.185,-0.16301 -1.36999,-0.143997 -0.186005,0.013 -0.949005,-0.10701 -1.071,-0.136002 -0.229004,-0.055008 -1.40701,0.274994 -1.62001,0.408997 -0.856995,0.522003 -2.228,0.382996 -2.758,-0.479004 -0.220001,-0.358994 -0.279007,-0.61499 -0.341003,-0.875 -0.041,-0.071991 0.602997,-0.466995 0.740997,-0.554993 0.434006,-0.262009 1.29501,-0.299011 1.63901,-0.220001 0.123001,0.028 1.09,0.320999 1.133,0.391998 0.087997,0.145004 1.47301,0.474991 1.793,0.673996 0.046997,0.070007 0.248001,0.244003 0.363007,0.270996 0.231995,0.057007 0.735992,0.238007 0.783005,0.307007 0.204987,0.175003 0.530991,0.067993 0.707993,0.356003 z  m 1.654,16.336 c 0.348007,0.571991 0.785995,1.286 1.14101,1.858 0.222992,0.358994 0.705994,1.146 0.651001,1.379 -0.055008,0.229004 0.242996,1.03301 0.209991,1.14999 -0.024002,0.113007 0.07901,0.442001 0.07901,0.442001 -0.056,0.233002 0.110992,0.824997 -0.373001,0.526001 -0.358002,-0.270996 -0.71701,-1.336 -1.02501,-1.836 -0.218002,-0.356995 -0.427994,-1.02 -0.687988,-1.44701 -0.355011,-0.57399 -0.681015,-1.26399 -0.988007,-1.76099 -0.042999,-0.070007 -0.177994,-0.28801 -0.220001,-0.359009 -0.089005,-0.145004 -0.520996,-0.371994 -0.636002,-0.395996 l -.09,-.145 .046,.068 c 0,0 0.949997,0.108994 1.114,0.205994 0.041992,0.078003 0.720978,0.546997 0.778992,0.315002 z  m -33.726,-3.419 c -2.78,0.149002 -5.39601,1.463 -7.578,-0.492996 -3.19501,-2.86 -3.855,-6.82899 -4.518,-9.032 -1.22099,-4.06599 -3.27499,-4.21699 -3.662,-4.81599 0.662003,-0.266006 3.541,-0.490005 4.63101,-0.381012 5.097,0.501999 5.812,0.799011 10.416,3.11101 -1.98001,-0.262009 -4.211,-1.562 -6.68001,-2.13901 -0.419998,-0.099991 -4.45399,-0.416 -4.01199,-0.03299 2.59999,2.21699 3.61,6.91699 6.246,9.172 2.06299,1.761 4.66199,3.056 7.15999,2.94299 0.768005,-0.030991 5.92,-0.030991 5.67401,0.126999 -0.181,0.121002 -4.821,1.08501 -7.677,1.541 z  m 5.874,-11.562 c -0.874008,-1.424 -2.25301,-3.459 -2.985,-5.808 -1.16901,-3.78698 -1.607,-8.09098 -2.78101,-9.68798 -0.093002,-0.125999 0.018997,0.139 0.220001,1.179 0.415009,2.211 0.969009,2.91 0.274002,6.46399 -0.130997,0.670982 -1.23,3.26598 -1.244,3.867 0.378006,0.492996 1.39801,0.772995 2.08301,1.196 1.286,0.801987 4.41899,2.801 4.433,2.78999 z "/>
</g>
<g id="svg_25">
<path style="fill:#ff56aa;fill-rule:evenodd" id="svg_26" d="m 94.894,92.171 c 0.362,0.295006 1.328,0.970001 1.603,1.118 3.776,2.041 5.35599,-1.234 8.821,-2.771 1.011,-3.917 0.991997,-6.722 -3.172,-9.04999 -0.093002,-0.051003 -0.190002,-0.103004 -0.289001,-0.154999 0.042999,-0.028 0.088997,-0.051003 0.129997,-0.079002 4.569,-2.833 0.987,-7.528 5.711,-10.531 -6.102,-1.608 -8.109,-1.40601 -10.434,-0.478004 -0.010002,-0.082001 -0.014,-0.167999 -0.017998,-0.253998 -0.241005,-2.297 -1.883,-2.777 -0.495003,-7.61101 -3.959,1.71101 -6.711,4.26701 -9.059,8.58701 0.567001,-5.25899 5.687,-6.931 5.407,-6.978 -0.632996,-0.104004 -5.049,0.993999 -6.931,3.238 -0.75,0.891998 -1.333,2.301 -1.64,3.858 -3.256,-3.061 -7.155,-1.792 -10.359,0.429001 -0.921997,3.056 -1.29999,6.475 0.759003,9.111 -0.593002,0.309998 -1.113,0.656998 -1.53301,1.029 -2.31,2.04999 -2.27299,4.695 -2.516,8.64999 1.258,-2.1 4.025,-6.465 9.848,-6.897 -4.687,2.082 -8.27,4.112 -10.816,9.785 2.394,-1.909 6.684,-0.181 10.899,-1.625 -0.018997,0.093002 -0.036995,0.177002 -0.045998,0.262001 -0.438004,3.884 3.237,7.35101 6.018,9.162 5.912,-0.815002 8.405,-3.656 8.112,-8.8 z "/>
<path style="fill:#ffaad4;fill-rule:evenodd" id="svg_27" d="m 76.918,74.15 c -0.983002,1.496 2.133,2.758 2.151,3.296 0.037003,0.859001 -0.661003,1.108 -1.654,0.703003 -0.879997,-0.356003 -1.942,-1.271 -3.6,-1.97 -0.354004,-0.149002 2.682,2.282 2.739,2.653 0.078003,0.491997 3.493,1.915 3.441,2.308 -0.088005,0.618004 -0.825005,0.938004 -1.271,1.116 -0.824997,0.331001 -2.021,-0.242996 -5.102,4.583 2.102,-1.92899 4.924,-3.084 6.168,-3.218 2.207,-0.237999 -0.638,-0.504005 -2.334,0.847 -2.441,1.948 -0.289001,0.754997 2.44,0.992996 1.743,0.158005 1.711,0.739998 1.361,2.026 -0.247002,0.893997 -5.412,0.181999 -11.137,5.059 -1.039,0.624001 5.12,-1.16 5.827,-1.216 2.828,-0.220001 4.16,-0.983002 6.205,-2.646 0.418999,-0.338997 1.22,-1.881 1.554,-2.39799 0.951996,-1.458 -2.066,3.377 -2.468,3.987 -0.437996,0.670998 -1.238,3.293 1.003,6.325 0.083,0.112 -1.375,-3.223 -0.704994,-4.69 2.953,-6.49799 2.977,1.743 4.668,2.72601 2.088,1.215 1.351,-5.562 2.115,-6.74 0.241997,-0.371994 -0.019997,-0.377998 0.997002,-0.586998 0.325996,-0.065002 2.692,0.321999 2.73,1.99 0.008003,0.464005 2.361,1.736 2.35201,3.99101 -0.014,2.632 -2.716,6.069 -2.306,5.795 3.908,-2.549 2.292,-7.23 2.805,-6.741 0.045998,0.041 1.434,0.987 2.944,1.375 0.908997,0.227997 2.81799,0.268997 4.555,-1.60201 0.326996,-0.350998 -3.10201,1.369 -5.25401,0.338005 -1.73199,-0.829002 -3.689,-2.22601 -4.126,-2.72 -1.529,-1.72701 -2.543,-3.813 -2.599,-4.11601 -0.028,-0.177994 0.75,1.159 0.856003,0.785004 0.083,-0.303001 -0.298004,-1.039 -0.205002,-1.527 0.056999,-0.297997 1.687,-0.563004 1.752,-0.894997 0.051003,-0.247002 0.442001,-0.083 0.451004,-0.344002 0.019997,-0.577003 -0.610001,-0.829002 -0.777,-1.467 -0.056,-0.223999 1.19299,-1.658 3.73499,-1.644 1.588,0.011002 3.57301,0.320999 5.74,0.571999 1.97,0.228996 2.832,-2.871 3.078,-6.509 0.038002,-0.552994 -3.937,3.3 -7.736,4.551 -2.684,0.882004 -5.562,-0.708 -5.641,-0.900002 -0.106995,-0.260002 8.478,-5.71699 7.975,-5.699 -3.963,0.150002 -8.334,3.259 -8.31499,2.85 0.017998,-0.539001 1.375,-2.167 1.337,-2.654 -0.051003,-0.686996 -5.11,3.932 -4.886,0.394997 0.102005,-1.757 0.651001,-2.954 1.579,-4.517 2.165,-3.635 7.402,-5.801 7.316,-6.14001 -0.101006,-0.355 -3.604,1.83201 -3.763,1.56001 -0.047005,-0.092999 -2.338,0.871002 -3.568,2.36601 -2.19,2.66099 -3.885,6.617 -3.978,6.463 -0.190994,-0.309998 -0.722,-4.86 3.47501,-7.655 -4.612,2.219 -3.997,6.293 -4.118,6.139 -1.072,-1.355 -3.187,-2.105 -4.184,-2.073 2.787,2.511 3.27,4.947 1.877,5.697 -1.326,0.708 -3.896,-2.311 -5.499,-0.820999 l 0,0 z "/>
<path style="fill:#ff007f;fill-rule:evenodd" id="svg_28" d="m 73.995,81.671 c 1.77399,-1.043 4.257,-0.642998 6.171,-0.480995 0.317001,0.023994 -0.415001,0.687996 -0.438004,0.879997 -0.028999,0.198997 0.511002,0.319 0.661003,0.357002 0.028,0.007996 0.791,0.660995 -0.046997,1.379 0.405998,0.093002 0.129997,0.278999 0.879997,0.484001 0.219002,0.063995 -0.912003,1.597 -0.739998,1.741 0.287994,0.243004 1.63,-0.102997 1.546,0.191002 -0.285004,1.011 0.557999,0.955002 0,2.026 -0.278999,0.544998 -1.435,2.306 -4.183,3.088 -2.599,0.741005 -6.862,1.067 -8.683,2.367 0.586998,-0.577003 0.382996,-2.035 3.979,-5.451 0.541,-0.515999 4.435,-3.232 7.039,-3.944 -2.637,-0.079002 -5.501,1.654 -5.544,1.685 -4.987,3.50301 -6.041,8.078 -6.176,8.479 2.32399,-1.84 4.597,-1.16 7.261,-1.281 2.077,-0.098 3.959,-0.621002 4.015,-0.615005 0.12999,0.014 0.875999,-1.933 2.097,-3.508 0.945,-1.225 1.499,-2.44 2.17,-2.12 0.521004,0.834 -0.543999,2.93 1.89099,7.854 -0.72599,-5.344 0.247009,-7.882 0.886009,-8.753 0.148003,-0.201004 0.703003,1.015 0.791,0.977997 0.331001,-0.144997 0.234001,-1.354 0.541,-1.131 0.68,0.497993 1.26799,1.537 1.584,1.58299 -1.90101,-2.744 0.72599,-2.669 1.18199,-2.557 1.878,0.437004 2.67501,1.118 3.057,0.833 0.584999,-0.437996 -1.11799,-0.814995 -2.208,-1.778 -0.242989,-0.209 -0.424988,-0.443001 -0.556,-0.675995 -0.133987,-0.250999 0.144012,-0.578003 0.150009,-0.806 0.00499,-0.233002 -0.27401,-0.366005 -0.136009,-0.520004 0.187012,-0.205002 0.494011,-0.325996 0.92701,-0.302002 1.188,0.062004 2.706,-0.202995 4.383,-0.074997 2.227,0.171997 4.504,0.729004 4.377,0.574997 -0.289001,-0.337997 -10.35,-1.611 -10.787,-2.17 -0.004997,-0.003998 1.043,-0.586998 1.081,-0.824997 0.042,-0.303001 -0.903999,-0.300003 -0.661011,-0.556 1.29401,-1.369 4.58701,-3.633 8.124,-5.145 -7.79799,1.64 -9.568,5.787 -9.55999,5.631 0.046989,-1.591 1.1,-5.015 7.322,-8.171 -1.78801,0.852005 -3.48301,1.777 -4.807,2.73701 -3.083,2.23399 -3.376,3.711 -4.201,3.977 -0.224014,0.073997 -0.186005,-1.349 -0.331001,-1.465 -0.237,-0.194 -0.917,0.856003 -0.982002,0.354004 -0.153999,-1.182 0.14399,-1.942 0.181,-2.278 0.050003,-0.486 0.441002,-3.58 3.791,-7.013 1.719,-1.76 5.706,-3.85202 5.655,-3.85202 -3.09199,1.39702 -4.91301,1.86102 -6.43999,3.50402 -0.364006,0.390999 -0.741005,0.713997 -1.04401,1.126 -0.920998,1.256 -1.361,2.287 -1.81599,3.518 -0.671005,1.801 -1.14101,3.662 -1.244,4.26 -0.061996,0.334999 -2.204,0.700989 -0.931999,-5.976 -2.399,5.81 -0.937004,7.406 -0.965004,7.432 -0.264999,0.246002 -0.907997,-0.384003 -1.173,-0.293999 -0.596001,0.198997 0.102997,1.652 -1.49,0.667 -1.869,-1.152 -2.729,-1.926 -3.359,-1.30901 -0.050003,0.057014 3.787,3.72301 3.089,3.80101 -1.183,0.138 -1.462,0.480003 -1.723,0.428001 -2.702,-0.524002 -5.684,-2.469 -5.632,-5.321 0.007996,-0.576004 0.209,-2.681 0.209,-2.681 -1.375,2.711 -0.919998,7.417 0.818001,9.119 z "/>
<path style="fill:#ff007f;fill-rule:evenodd" id="svg_29" d="m 89.066,83.737 c 0.259995,-0.224998 0.298996,-0.209 0.275002,-0.885002 -0.010002,-0.209999 2.281,0.415001 2.37,0.144005 0.335999,0.028 -1.667,-1.519 -1.424,-1.699 0.530998,-0.407997 2.04,-0.737999 2.166,-1.03799 0.237999,-0.550003 -2.595,-0.218002 -3.056,-0.726006 -0.031006,-0.032997 0.824997,-1.014 0.75,-1.277 -0.055,-0.206993 -1.22,0.793007 -1.179,0.552002 0.181999,-1.044 1.039,-2.85 1.142,-3.127 -0.213997,0.250999 -1.583,2.399 -1.709,2.579 -0.285004,0.418999 -0.368004,0.554001 -0.667,0.593994 -0.526001,0.076004 -0.474998,-0.335999 -0.614998,-0.460999 -0.083,-0.07 -0.335014,-2.974 -0.829002,-3.375 -0.157997,-0.131996 -0.069,2.237 -0.261002,2.048 -0.311996,-0.32 -0.656998,-0.727005 -1.005,-1.233 0.101997,1.138 0.092995,0.453003 -0.409004,1.438 -0.242996,0.470993 -0.881996,0.088997 -1.333,0.184998 -0.074997,0.016998 0.512001,0.941002 -0.418999,0.571999 -1.203,-0.472 -2.868,-1.725 -2.729,-1.576 1.905,2.091 3.10699,2.80199 3.03799,2.892 -0.139999,0.178001 -1.24,0.433998 -2.061,0.380997 1.357,0.168999 1.641,0.744003 1.584,0.943001 -0.059998,0.244003 -0.512001,1.418 -0.721001,1.684 -0.219002,0.278999 1.021,0.093002 1.038,0.237999 0.102997,1.118 0.102997,1.345 1.725,0.601006 0.139,-0.064003 0.065002,1.06601 -0.261002,2.091 0.913002,-0.731995 0.839005,-1.34199 0.968002,-1.272 0.158989,0.074997 0.224998,0.047997 0.390999,0.098999 0.15799,0.055 -0.017998,3.487 0.139999,3.521 0.532005,0.093002 0.895004,-3.298 1.48999,-3.94099 0.516014,-0.572006 1.22,0.372993 1.60101,0.047997 z "/>
<path style="fill:#bf005f;fill-rule:evenodd" id="svg_30" d="m 87.755,81.047 c -0.343994,-0.162994 -0.637001,-0.274994 -0.931999,-0.382996 -0.464996,-0.222 -0.233002,0.163002 -0.409996,0.163002 -0.327003,0 -1.1,-0.771004 -1.43,-0.785004 -0.200005,-0.011002 0.031998,0.730003 -0.145004,0.730003 -0.072998,0 -1.06599,-2.291 -1.434,-2.524 -0.223,-0.139 0.223999,1.818 -0.027,1.658 -0.658997,-0.43 -1.305,-0.841995 -1.365,-0.789001 -0.173004,0.166 1.159,1.523 1.159,1.691 0,0.080002 -1.574,0.512001 -1.602,0.711998 -0.056,0.361 0.335999,0.499001 1.132,0.836006 0.271004,0.116997 -1.63,1.03 -1.001,1.212 0.242004,0.069 1.23,-0.643997 1.957,-0.597 0.292,0.014 -0.670998,1.616 -0.485001,1.477 0.125,-0.098 0.433014,-0.219009 0.797005,-0.339996 0.227997,-0.075005 0.282997,1 0.526009,0.931999 0.394989,-0.117004 0.94899,-1.361 1.14499,-1.416 0.391998,-0.112999 0.666,0.399002 0.886002,0.250999 0.296997,-0.206001 -0.067001,-0.68 0.062996,-0.806999 0.177002,-0.162003 0.993004,0.186996 1.398,0.186996 0.471001,0 0.299011,0.112 0.12101,-0.273994 -0.117012,-0.247002 -0.819,-1.117 -0.12101,-0.973 0.195999,0.038994 0.80101,-0.422005 0.75,-0.728004 -0.023003,-0.154999 -0.982002,-0.176003 -0.982002,-0.233002 z "/>
<path style="fill:#ffaad4;fill-rule:evenodd" id="svg_31" d="m 92.979,91.278 c 0.126007,0.139999 1.29501,4.177 -2.38599,7.136 -1.179,0.945 -4.164,0.541 -4.15,-3.513 -0.471001,0.228996 -0.089005,2.245 -0.914001,3.428 -0.181,0.265999 -2.138,-0.195 -3.871,-2.799 2.124,4.015 5.273,5.301 5.152,5.338 9.987,-1.40199 7.49101,-9.601 7.844,-9.34399 1.425,1.173 3.378,2.715 7.379,0.837997 1.681,-0.792999 1.815,-1.356 3.25,-1.853 1.472,-4.025 -0.241997,-8.33 -3.824,-9.238 -0.237,-0.061005 -1.248,-0.347 -2.417,-0.518005 -1.51,-0.217995 -3.545,-0.175995 -3.839,-0.202995 -0.130005,-0.011002 6.48399,0.395996 7.305,3.254 0.436996,1.509 1.12299,1.788 0,2.385 -1.305,0.687996 -3.578,-0.522003 -3.889,0.044998 -0.308006,0.563995 3.013,2.227 1.625,3.708 -1.65801,1.774 -5.343,0.954002 -6.773,0.049995 -0.147003,-0.086998 -4.267,-5.994 -3.852,-5.364 0.481995,0.738998 2.82,5.724 3.35999,6.65 z  m -.722,-25.26 c -0.698006,0.758003 -1.343,1.748 -1.924,2.641 -0.396004,0.612007 -0.651001,1.11 -0.535004,1.564 0.036003,0.153999 -0.098999,0.463997 0.236,0.271004 0.476006,-0.312004 1.332,-1.95001 1.70001,-2.513 0.248001,-0.375 0.388,-0.809006 0.572998,-1.093 0.028,-0.046997 0.112,-0.387001 0.234001,-0.574997 0.279999,-0.421005 -0.213997,-0.191002 -0.283997,-0.295006 z  m -17.762,5.619 c 0.074997,-0.021004 0.820999,-0.107002 0.950996,-0.096001 0.129997,0.010002 0.663002,-0.071999 0.746002,-0.086998 0.156998,-0.038002 0.973,0.179001 1.127,0.267998 0.596001,0.344002 1.547,0.250999 1.914,-0.311996 0.153,-0.237007 0.191002,-0.405006 0.238998,-0.577003 0.027,-0.046997 -0.419998,-0.306 -0.523003,-0.361 -0.297997,-0.177002 -0.893997,-0.199997 -1.137,-0.148003 -0.083,0.018005 -0.753998,0.213005 -0.780998,0.260002 -0.061996,0.093002 -1.025,0.312004 -1.25,0.440002 -0.031998,0.046997 -0.171997,0.161995 -0.25,0.181 -0.159996,0.035995 -0.514,0.153 -0.545998,0.202995 -0.139999,0.109001 -0.368004,0.040001 -0.489998,0.229004 z  m -1.149,10.735 c -0.247002,0.372002 -0.550003,0.842995 -0.796997,1.221 -0.153,0.231995 -0.489006,0.75 -0.452003,0.902 0.042,0.149994 -0.167999,0.681 -0.143997,0.754997 0.017998,0.079002 -0.056992,0.292999 -0.056992,0.292999 0.038986,0.153999 -0.074013,0.541 0.260986,0.346001 0.251999,-0.181999 0.494003,-0.875999 0.708,-1.207 0.153999,-0.233002 0.298004,-0.667 0.484001,-0.950996 0.243004,-0.378006 0.467003,-0.829002 0.681,-1.16 0.031998,-0.046997 0.120003,-0.186996 0.153999,-0.233002 0.062004,-0.092995 0.363998,-0.241997 0.442001,-0.260994 l .066,-.093 -.034,.046 c 0,0 -0.660995,0.07 -0.772995,0.135002 -0.031006,0.046997 -0.506004,0.356003 -0.539001,0.207001 z  m 23.433,-2.247 c 1.928,0.096001 3.754,0.961998 5.27,-0.327003 2.22099,-1.877 2.67699,-4.48199 3.133,-5.934 0.851997,-2.671 2.282,-2.77 2.553,-3.166 -0.459999,-0.171997 -2.459,-0.320999 -3.222,-0.247002 -3.541,0.329002 -4.035,0.521004 -7.235,2.041 1.375,-0.169998 2.921,-1.027 4.644,-1.402 0.289001,-0.065994 3.094,-0.271996 2.785,-0.023994 -1.806,1.458 -2.505,4.547 -4.346,6.029 -1.43,1.156 -3.236,2.005 -4.974,1.935 -0.529999,-0.024002 -4.113,-0.024002 -3.945,0.081001 0.130997,0.079002 3.353,0.710999 5.337,1.014 z  m -4.079,-7.598 c 0.610001,-0.935997 1.564,-2.273 2.07101,-3.817 0.815987,-2.489 1.12299,-5.31501 1.93399,-6.36701 0.064995,-0.081997 -0.014,0.094002 -0.150002,0.773994 -0.292,1.45801 -0.674004,1.91601 -0.195,4.24902 0.094002,0.443001 0.858002,2.146 0.866997,2.54299 -0.260994,0.318008 -0.967995,0.505013 -1.444,0.782013 -0.894997,0.529999 -3.075,1.84 -3.083,1.836 z "/>
</g>
</g>
<use x="1768.108063" y="-1901.552246" style="stroke-width:0" xlink:href="#svg_77" id="svg_78" transform="matrix(0.0491204, 0, 0, 0.0491204, 25.6074, 94.1797)"/>
<use x="180.424072" y="-15.035339" xlink:href="#svg_122" id="svg_123" transform="matrix(0.0466244, 0, 0, 0.0466244, 91.6169, 1.18082)"/>
</g>
</svg>
